<?xml version="1.0" standalone="no"?>
<!DOCTYPE svg PUBLIC "-//W3C//DTD SVG 1.1//EN" "http://www.w3.org/Graphics/SVG/1.1/DTD/svg11.dtd">
<svg width="100%" height="100%" viewBox="0 0 12095 9071" version="1.1" xmlns="http://www.w3.org/2000/svg" xmlns:xlink="http://www.w3.org/1999/xlink" xml:space="preserve" style="fill-rule:evenodd;clip-rule:evenodd;stroke-linecap:round;stroke-linejoin:round;stroke-miterlimit:1.41421;">
    <g transform="matrix(1.91159,0.161902,-0.161902,1.91159,-3296.24,-3379.71)">
        <path d="M5307.91,1723.44C5342.13,1696.38 5400.4,1651.16 5450.48,1620.8C5504.18,1588.25 5568.41,1555.19 5630.11,1528.12C5693.72,1500.22 5762.42,1470.68 5832.09,1453.39C5905.98,1435.04 6005.67,1423.94 6073.47,1418.06C6128.41,1413.29 6183.86,1414.59 6238.9,1418.06C6295.18,1421.6 6354.71,1426.6 6411.15,1439.3C6477.65,1454.27 6568.2,1481.53 6637.89,1507.86C6703.76,1532.75 6768.8,1561.65 6829.28,1597.28C6889.76,1632.91 6947.31,1677.37 7000.77,1721.66C7053.54,1765.37 7104.39,1811.89 7150.05,1862.99C7198.01,1916.65 7249.66,1982.05 7288.52,2043.65C7326.11,2103.23 7356.59,2167.37 7383.23,2232.58C7412.06,2303.14 7442.41,2386.85 7461.48,2466.99C7480.55,2547.15 7495.46,2630.52 7497.66,2713.57C7500.08,2805.24 7493.3,2923.4 7476.02,3017.02C7459.61,3105.85 7429.2,3192.42 7393.94,3275.28C7358.67,3358.14 7314.66,3440.46 7264.45,3514.18C7214.49,3587.54 7157.18,3656.66 7092.69,3717.64C7023.77,3782.79 6928.93,3855.08 6850.94,3905.11C6780.02,3950.6 6702.67,3988.47 6624.7,4017.83C6546.78,4047.17 6465.56,4069.71 6383.1,4081.29C6293.68,4093.84 6184.82,4097.37 6088.17,4093.13C5992.46,4088.94 5888.46,4076.69 5803.19,4055.88C5724.5,4036.66 5648.69,4005.05 5576.55,3968.23C5502.23,3930.31 5425.79,3881.49 5357.33,3828.33C5286.75,3773.51 5213.84,3709.42 5153.05,3639.36C5090.56,3567.33 5028.76,3478.46 4982.35,3396.13C4937.68,3316.87 4900.49,3232.56 4874.59,3145.34C4847.02,3052.49 4825.04,2931.06 4816.93,2839.05C4809.73,2757.39 4814.52,2674.47 4825.92,2593.29C4838,2507.26 4866.95,2395.11 4889.39,2322.86C4906.97,2266.24 4931.26,2211.41 4960.52,2159.84C4996.51,2096.44 5057.88,2005.23 5105.32,1942.45C5147.92,1886.09 5211.39,1819.69 5245.16,1783.19C5264.77,1761.99 5285.26,1741.36 5307.91,1723.44Z" style="fill:rgb(230,200,200);fill-opacity:0;stroke-width:217.19px;stroke:black;"/>
    </g>
    <g transform="matrix(1.29477,0,0,1.29477,-648.406,-187)">
        <path d="M4322.41,3633.7C4339.58,3616.49 4378.42,3570.5 4410.77,3543.62C4443.82,3516.16 4483.23,3481.36 4520.75,3468.91C4557.16,3456.82 4599.17,3457.68 4635.86,3468.91C4676.22,3481.27 4726.22,3510.52 4762.91,3543.06C4845.71,3616.51 5023.17,3799.74 5132.68,3909.6C5229.17,4006.4 5342.14,4122.33 5419.95,4202.2C5480.19,4264.03 5561.18,4330.1 5599.52,4388.79C5631.07,4437.08 5660.18,4497.55 5649.97,4554.32C5639.51,4612.44 5576.39,4687.34 5536.76,4737.49C5501.34,4782.32 5458.17,4831.35 5412.18,4855.24C5366.79,4878.82 5310.62,4892.72 5260.87,4880.84C5207.14,4868 5137.42,4814.14 5089.83,4778.24C5047.05,4745.97 4992.23,4678.96 4975.3,4665.43C4966.39,4658.32 4985.34,4686.06 4988.21,4697.09C4993.38,4716.98 5005.31,4754.95 5006.35,4784.78C5007.42,4815.36 5009.48,4852.03 4994.63,4880.57C4975.93,4916.51 4929.58,4962.18 4894.15,5000.43C4849.65,5048.48 4783.55,5113.15 4727.61,5168.87C4641.47,5254.68 4493.6,5399.33 4377.31,5515.28C4214.03,5678.09 3916.87,5977.28 3747.94,6145.72C3620.36,6272.95 3466.97,6422.39 3363.75,6525.95C3284.51,6605.46 3185.45,6709.31 3128.64,6767.06C3093.74,6802.55 3056.01,6849.16 3022.9,6872.5C2995.89,6891.55 2962.95,6904.78 2929.98,6907.11C2896.81,6909.44 2857.41,6899.75 2823.9,6886.53C2789.02,6872.77 2751.77,6849.92 2720.69,6824.54C2682.04,6792.99 2635.05,6739.54 2592.05,6697.23C2542.68,6648.64 2474.93,6583.94 2424.44,6532.99C2378.5,6486.64 2325.77,6433.03 2289.11,6391.54C2258.92,6357.37 2221.03,6320.8 2204.48,6284.07C2188.89,6249.47 2188.15,6201.06 2189.79,6171.16C2191.08,6147.57 2201.13,6124.27 2214.33,6104.68C2229.69,6081.86 2259.28,6057.57 2281.99,6034.23C2329.9,5984.96 2427.82,5883.39 2501.83,5809.05C2612.69,5697.7 2808.09,5504.36 2947.11,5366.12C3076.68,5237.26 3206.6,5108.74 3335.92,4979.62C3526.35,4789.49 3946.9,4366.97 4089.7,4225.31C4122.96,4192.31 4158.15,4151.07 4192.69,4129.66C4223.65,4110.47 4262.15,4097.62 4296.94,4096.85C4331.73,4096.09 4383.93,4121.13 4401.41,4125.06C4402.91,4125.4 4402.34,4121.9 4401.8,4120.46C4401.12,4118.61 4398.96,4116.06 4397.33,4114.01C4394.48,4110.4 4388.87,4103.89 4384.67,4098.81C4371.25,4082.59 4332.65,4037.15 4316.83,4016.7C4306.87,4003.85 4298.76,3989.67 4289.72,3976.16C4277.98,3958.59 4257.02,3934.6 4246.37,3911.29C4235.71,3887.99 4229.2,3861.75 4225.81,3836.34C4222.41,3810.92 4219.18,3783.73 4226.01,3758.8C4232.93,3733.53 4253.72,3703.34 4267.34,3684.69C4278.22,3669.79 4298.56,3655.38 4307.73,3646.88C4312.56,3642.41 4317.77,3638.35 4322.41,3633.7Z" style="fill:black;stroke-width:157.69px;stroke:black;"/>
    </g>
</svg>
