<?xml version="1.0" standalone="no"?>
<!DOCTYPE svg PUBLIC "-//W3C//DTD SVG 1.1//EN" "http://www.w3.org/Graphics/SVG/1.1/DTD/svg11.dtd">
<svg width="100%" height="100%" viewBox="0 0 1000 1000" version="1.1" xmlns="http://www.w3.org/2000/svg" xmlns:xlink="http://www.w3.org/1999/xlink" xml:space="preserve" style="fill-rule:evenodd;clip-rule:evenodd;stroke-linejoin:round;stroke-miterlimit:1.41421;">
    <g transform="matrix(0.618646,0,0,0.618646,136.565,78.9184)">
        <path d="M0,505.802L0,382.763C1.302,359.327 10.091,339.471 26.366,323.196C42.641,306.921 61.846,298.783 83.98,298.783L353.494,298.783C445.936,293.575 536.751,272.092 625.938,234.334C715.125,196.576 791.618,145.798 855.416,82C878.852,83.302 898.382,92.091 914.006,108.366C929.63,124.641 937.442,143.846 937.442,165.98L937.442,365.186C955.67,370.394 970.643,380.484 982.361,395.457C994.079,410.43 999.938,427.03 999.938,445.259C998.636,464.789 992.452,481.715 981.385,496.037C970.318,510.359 955.671,519.473 937.442,523.379L937.442,724.538C936.14,747.974 927.351,767.504 911.076,783.128C894.801,798.752 876.247,806.564 855.416,806.564C717.404,684.176 567.674,613.868 406.226,595.64C361.958,617.774 326.435,661.965 334.898,724.461C343.36,786.957 386.695,832.604 429.662,865.154C411.434,896.402 379.535,913.654 333.965,916.909C288.395,920.164 253.241,910.074 228.503,886.638C218.087,856.692 209.949,831.628 204.09,811.447C198.231,791.266 192.697,767.504 187.489,740.162C182.281,712.82 180.002,686.78 180.653,662.042C181.304,637.304 184.884,613.217 191.395,589.781L83.98,589.781C60.544,588.479 40.688,579.69 24.413,563.415C8.138,547.14 0,527.935 0,505.801L0,505.802ZM421.08,515.567C581.226,545.513 737.583,606.707 857.367,699.149L857.367,191.369C721.959,291.623 568.79,354.369 424.268,375.201L421.08,515.567Z" style="fill:black;fill-rule:nonzero;"/>
    </g>
    <g transform="matrix(1,0,0,1,136.565,47.6473)">
        <path d="M691.986,208.066L697.951,439.272" style="fill:rgb(235,235,235);"/>
    </g>
    <g transform="matrix(1,0,0,1,115.885,88.3882)">
        <text x="687.416px" y="387.907px" style="font-family:'ArialMT';font-size:298.764px;fill:black;">!</text>
    </g>
</svg>
