<?xml version="1.0" standalone="no"?>
<!DOCTYPE svg PUBLIC "-//W3C//DTD SVG 1.1//EN" "http://www.w3.org/Graphics/SVG/1.1/DTD/svg11.dtd">
<svg width="100%" height="100%" viewBox="0 0 261 243" version="1.1" xmlns="http://www.w3.org/2000/svg" xmlns:xlink="http://www.w3.org/1999/xlink" xml:space="preserve" style="fill-rule:evenodd;clip-rule:evenodd;stroke-linejoin:round;stroke-miterlimit:1.41421;">
    <g transform="matrix(1,0,0,1,-362.121,-312.501)">
        <g transform="matrix(1,0,0,1,304.622,122.223)">
            <g transform="matrix(0.407388,0,0,0.407388,-81.6099,113.332)">
                <path d="M777.949,667.687C737.838,667.841 578.669,668.125 538.093,668.165C536.89,668.166 535.115,668.954 534.492,667.925C533.719,666.647 533.446,662.996 533.452,660.495C533.546,622.007 533.414,479.381 535.055,437C535.466,426.381 539.857,415.484 543.298,406.204C546.521,397.514 550.15,388.741 555.702,381.32C562.225,372.601 573.026,361.174 582.439,353.887C591.376,346.968 602.619,341.455 612.178,337.599C620.972,334.052 631.766,332.107 639.789,330.753C646.547,329.611 653.462,329.222 660.312,329.472C667.911,329.749 677.681,330.598 685.385,332.417C692.716,334.149 699.99,337.434 706.532,340.388C712.78,343.209 719.004,346.238 724.64,350.141C730.578,354.254 737.421,360.501 742.165,365.065C746.147,368.896 749.698,373.17 753.103,377.523C756.641,382.046 760.54,386.956 763.395,392.208C766.553,398.016 769.849,406.257 772.049,412.37C773.983,417.742 775.611,423.713 776.597,428.886C777.506,433.661 777.915,438.543 777.961,443.404C778.31,480.5 778.557,614.513 778.69,651.466C778.706,656.016 778.747,662.489 778.758,665.118C778.761,665.825 778.893,666.811 778.758,667.24C778.666,667.534 778.257,667.686 777.949,667.687Z" style="fill:rgb(7,0,0);"/>
            </g>
        </g>
        <g transform="matrix(1,0,0,1,304.622,122.223)">
            <g transform="matrix(0.444934,0,0,0.444934,-121.442,105.627)">
                <circle cx="693.014" cy="259.149" r="68.894" style="fill:rgb(7,0,0);"/>
            </g>
        </g>
        <g transform="matrix(1,0,0,1,304.622,122.223)">
            <g transform="matrix(0.407388,0,0,0.407388,-81.6099,113.332)">
                <path d="M777.949,667.687C737.838,667.841 578.669,668.125 538.093,668.165C536.89,668.166 535.115,668.954 534.492,667.925C533.719,666.647 533.446,662.996 533.452,660.495C533.546,622.007 533.414,479.381 535.055,437C535.466,426.381 539.857,415.484 543.298,406.204C546.521,397.514 550.15,388.741 555.702,381.32C562.225,372.601 573.026,361.174 582.439,353.887C591.376,346.968 602.619,341.455 612.178,337.599C620.972,334.052 631.766,332.107 639.789,330.753C646.547,329.611 653.462,329.222 660.312,329.472C667.911,329.749 677.681,330.598 685.385,332.417C692.716,334.149 699.99,337.434 706.532,340.388C712.78,343.209 719.004,346.238 724.64,350.141C730.578,354.254 737.421,360.501 742.165,365.065C746.147,368.896 749.698,373.17 753.103,377.523C756.641,382.046 760.54,386.956 763.395,392.208C766.553,398.016 769.849,406.257 772.049,412.37C773.983,417.742 775.611,423.713 776.597,428.886C777.506,433.661 777.915,438.543 777.961,443.404C778.31,480.5 778.557,614.513 778.69,651.466C778.706,656.016 778.747,662.489 778.758,665.118C778.761,665.825 778.893,666.811 778.758,667.24C778.666,667.534 778.257,667.686 777.949,667.687Z" style="fill:rgb(7,0,0);"/>
            </g>
        </g>
        <g transform="matrix(1,0,0,1,304.622,122.223)">
            <g transform="matrix(0.444934,0,0,0.444934,-121.442,105.627)">
                <circle cx="693.014" cy="259.149" r="68.894" style="fill:rgb(7,0,0);"/>
            </g>
        </g>
        <g transform="matrix(1,0,0,1,386.507,152.919)">
            <g transform="matrix(0.407388,0,0,0.407388,-81.6099,113.332)">
                <path d="M777.949,667.687C737.838,667.841 578.669,668.125 538.093,668.165C536.89,668.166 535.115,668.954 534.492,667.925C533.719,666.647 533.446,662.996 533.452,660.495C533.546,622.007 533.414,479.381 535.055,437C535.466,426.381 539.857,415.484 543.298,406.204C546.521,397.514 550.15,388.741 555.702,381.32C562.225,372.601 573.026,361.174 582.439,353.887C591.376,346.968 602.619,341.455 612.178,337.599C620.972,334.052 631.766,332.107 639.789,330.753C646.547,329.611 653.462,329.222 660.312,329.472C667.911,329.749 677.681,330.598 685.385,332.417C692.716,334.149 699.99,337.434 706.532,340.388C712.78,343.209 719.004,346.238 724.64,350.141C730.578,354.254 737.421,360.501 742.165,365.065C746.147,368.896 749.698,373.17 753.103,377.523C756.641,382.046 760.54,386.956 763.395,392.208C766.553,398.016 769.849,406.257 772.049,412.37C773.983,417.742 775.611,423.713 776.597,428.886C777.506,433.661 777.915,438.543 777.961,443.404C778.31,480.5 778.557,614.513 778.69,651.466C778.706,656.016 778.747,662.489 778.758,665.118C778.761,665.825 778.893,666.811 778.758,667.24C778.666,667.534 778.257,667.686 777.949,667.687Z" style="fill:rgb(7,0,0);"/>
            </g>
        </g>
        <g transform="matrix(1,0,0,1,386.507,152.919)">
            <g transform="matrix(0.444934,0,0,0.444934,-121.442,105.627)">
                <circle cx="693.014" cy="259.149" r="68.894" style="fill:rgb(7,0,0);"/>
            </g>
        </g>
        <g transform="matrix(1,0,0,1,386.507,152.919)">
            <g transform="matrix(0.407388,0,0,0.407388,-81.6099,113.332)">
                <path d="M777.949,667.687C737.838,667.841 578.669,668.125 538.093,668.165C536.89,668.166 535.115,668.954 534.492,667.925C533.719,666.647 533.446,662.996 533.452,660.495C533.546,622.007 533.414,479.381 535.055,437C535.466,426.381 539.857,415.484 543.298,406.204C546.521,397.514 550.15,388.741 555.702,381.32C562.225,372.601 573.026,361.174 582.439,353.887C591.376,346.968 602.619,341.455 612.178,337.599C620.972,334.052 631.766,332.107 639.789,330.753C646.547,329.611 653.462,329.222 660.312,329.472C667.911,329.749 677.681,330.598 685.385,332.417C692.716,334.149 699.99,337.434 706.532,340.388C712.78,343.209 719.004,346.238 724.64,350.141C730.578,354.254 737.421,360.501 742.165,365.065C746.147,368.896 749.698,373.17 753.103,377.523C756.641,382.046 760.54,386.956 763.395,392.208C766.553,398.016 769.849,406.257 772.049,412.37C773.983,417.742 775.611,423.713 776.597,428.886C777.506,433.661 777.915,438.543 777.961,443.404C778.31,480.5 778.557,614.513 778.69,651.466C778.706,656.016 778.747,662.489 778.758,665.118C778.761,665.825 778.893,666.811 778.758,667.24C778.666,667.534 778.257,667.686 777.949,667.687Z" style="fill:rgb(7,0,0);"/>
            </g>
        </g>
        <g transform="matrix(1,0,0,1,386.507,152.919)">
            <g transform="matrix(0.444934,0,0,0.444934,-121.442,105.627)">
                <circle cx="693.014" cy="259.149" r="68.894" style="fill:rgb(7,0,0);"/>
            </g>
        </g>
        <g transform="matrix(1,0,0,1,226.409,169.722)">
            <g transform="matrix(0.407388,0,0,0.407388,-81.6099,113.332)">
                <path d="M777.949,667.687C737.838,667.841 578.669,668.125 538.093,668.165C536.89,668.166 535.115,668.954 534.492,667.925C533.719,666.647 533.446,662.996 533.452,660.495C533.546,622.007 533.414,479.381 535.055,437C535.466,426.381 539.857,415.484 543.298,406.204C546.521,397.514 550.15,388.741 555.702,381.32C562.225,372.601 573.026,361.174 582.439,353.887C591.376,346.968 602.619,341.455 612.178,337.599C620.972,334.052 631.766,332.107 639.789,330.753C646.547,329.611 653.462,329.222 660.312,329.472C667.911,329.749 677.681,330.598 685.385,332.417C692.716,334.149 699.99,337.434 706.532,340.388C712.78,343.209 719.004,346.238 724.64,350.141C730.578,354.254 737.421,360.501 742.165,365.065C746.147,368.896 749.698,373.17 753.103,377.523C756.641,382.046 760.54,386.956 763.395,392.208C766.553,398.016 769.849,406.257 772.049,412.37C773.983,417.742 775.611,423.713 776.597,428.886C777.506,433.661 777.915,438.543 777.961,443.404C778.31,480.5 778.557,614.513 778.69,651.466C778.706,656.016 778.747,662.489 778.758,665.118C778.761,665.825 778.893,666.811 778.758,667.24C778.666,667.534 778.257,667.686 777.949,667.687Z" style="fill:rgb(7,0,0);"/>
            </g>
        </g>
        <g transform="matrix(1,0,0,1,226.409,169.722)">
            <g transform="matrix(0.444934,0,0,0.444934,-121.442,105.627)">
                <circle cx="693.014" cy="259.149" r="68.894" style="fill:rgb(7,0,0);"/>
            </g>
        </g>
        <g transform="matrix(1,0,0,1,226.409,169.722)">
            <g transform="matrix(0.407388,0,0,0.407388,-81.6099,113.332)">
                <path d="M777.949,667.687C737.838,667.841 578.669,668.125 538.093,668.165C536.89,668.166 535.115,668.954 534.492,667.925C533.719,666.647 533.446,662.996 533.452,660.495C533.546,622.007 533.414,479.381 535.055,437C535.466,426.381 539.857,415.484 543.298,406.204C546.521,397.514 550.15,388.741 555.702,381.32C562.225,372.601 573.026,361.174 582.439,353.887C591.376,346.968 602.619,341.455 612.178,337.599C620.972,334.052 631.766,332.107 639.789,330.753C646.547,329.611 653.462,329.222 660.312,329.472C667.911,329.749 677.681,330.598 685.385,332.417C692.716,334.149 699.99,337.434 706.532,340.388C712.78,343.209 719.004,346.238 724.64,350.141C730.578,354.254 737.421,360.501 742.165,365.065C746.147,368.896 749.698,373.17 753.103,377.523C756.641,382.046 760.54,386.956 763.395,392.208C766.553,398.016 769.849,406.257 772.049,412.37C773.983,417.742 775.611,423.713 776.597,428.886C777.506,433.661 777.915,438.543 777.961,443.404C778.31,480.5 778.557,614.513 778.69,651.466C778.706,656.016 778.747,662.489 778.758,665.118C778.761,665.825 778.893,666.811 778.758,667.24C778.666,667.534 778.257,667.686 777.949,667.687Z" style="fill:rgb(7,0,0);"/>
            </g>
        </g>
        <g transform="matrix(1,0,0,1,226.409,169.722)">
            <g transform="matrix(0.444934,0,0,0.444934,-121.442,105.627)">
                <circle cx="693.014" cy="259.149" r="68.894" style="fill:rgb(7,0,0);"/>
            </g>
        </g>
    </g>
</svg>
