<?xml version="1.0" standalone="no"?>
<!DOCTYPE svg PUBLIC "-//W3C//DTD SVG 1.1//EN" "http://www.w3.org/Graphics/SVG/1.1/DTD/svg11.dtd">
<svg width="100%" height="100%" viewBox="0 0 5602 6605" version="1.1" xmlns="http://www.w3.org/2000/svg" xmlns:xlink="http://www.w3.org/1999/xlink" xml:space="preserve" style="fill-rule:evenodd;clip-rule:evenodd;stroke-linejoin:round;stroke-miterlimit:1.41421;">
    <g transform="matrix(1,0,0,1,-2957.66,-1015.16)">
        <g transform="matrix(12.5645,0,0,12.5645,2915.94,2875.82)">
            <path d="M400.336,330.379C402.168,331.573 401.627,326.062 401.336,323.895C400.988,321.295 399.639,317.668 398.244,314.777C396.32,310.791 392.24,305.105 389.792,299.978C385.82,291.657 379.044,275.599 374.408,264.852C370.2,255.095 365.297,242.75 361.979,235.497C359.758,230.642 356.912,225.989 354.503,221.333C352.137,216.761 349.62,212.259 347.524,207.558C345.103,202.131 342.341,194.21 339.98,188.77C337.942,184.074 335.561,179.412 333.358,174.914C331.202,170.515 328.477,165.89 326.758,161.784C325.201,158.065 324.568,154.007 323.044,150.275C321.501,146.496 319.767,142.398 317.5,139.109C315.275,135.881 312.372,133.145 309.442,130.54C306.428,127.861 302.753,124.242 299.415,123.033C296.279,121.897 292.192,122.758 289.411,123.285C287.025,123.737 284.533,124.565 282.732,126.194C280.404,128.3 277.012,133.074 275.442,135.919C274.211,138.152 272.712,140.789 273.315,143.267C274.595,148.53 279.784,161.55 283.122,167.5C285.628,171.966 291.003,176.536 293.345,178.969C294.488,180.156 296.109,180.839 297.174,182.096C298.975,184.224 301.764,188.567 304.154,191.732C306.821,195.266 310.429,199.256 313.18,203.299C316.155,207.67 319.147,213.021 321.999,217.959C326.836,226.334 335.572,243.37 342.201,253.547C348.046,262.52 356.737,271.883 361.774,279.022C365.687,284.57 368.59,290.779 372.421,296.384C376.341,302.122 380.777,307.941 385.299,313.448C389.952,319.114 397.663,328.638 400.336,330.379Z" style="fill:rgb(101,101,101);"/>
        </g>
        <g transform="matrix(12.5645,0,0,12.5645,2978.63,2929.25)">
            <path d="M275.451,135.717C276.103,135.103 277.734,131.913 278.972,130.274C280.154,128.71 281.569,126.97 282.881,125.882C284.036,124.923 286.257,124.243 286.843,123.742C287.09,123.532 286.586,123.142 286.398,122.878C285.604,121.765 283.44,119.056 282.08,117.06C280.506,114.75 278.567,111.76 276.957,109.02C274.76,105.281 270.947,98.847 268.898,94.623C267.19,91.104 265.756,87.435 264.659,83.68C263.162,78.549 261.508,70.451 259.913,63.842C258.275,57.058 256.124,48.478 254.835,42.978C253.891,38.944 252.965,33.68 252.181,30.837C251.709,29.125 250.821,26.708 250.131,25.918C249.671,25.392 248.487,25.668 248.043,26.098C247.599,26.528 247.402,27.679 247.466,28.5C247.588,30.083 248.281,33.242 248.777,35.595C249.839,40.624 252.285,51.891 253.836,58.677C255.183,64.571 257.161,72.341 258.083,76.31C258.559,78.362 259.312,81.14 259.368,82.496C259.398,83.217 258.864,84.199 258.419,84.442C257.974,84.686 257.042,84.444 256.698,83.957C255.666,82.492 253.69,78.438 252.227,75.657C249.948,71.325 245.197,62.531 243.024,57.969C241.53,54.833 240.393,51.421 239.188,48.28C238.022,45.24 236.528,40.936 235.795,39.12C235.544,38.499 235.456,37.336 234.789,37.383C233.932,37.444 231.313,38.655 230.654,39.483C230.058,40.231 230.535,41.44 230.838,42.348C231.502,44.338 233.392,48.39 234.636,51.424C236.156,55.13 238.238,60.601 239.956,64.585C241.521,68.213 244.011,73.244 244.95,75.333C245.21,75.911 246.136,77.374 245.589,77.123C245.041,76.873 242.925,74.982 241.664,73.83C238.955,71.354 233.083,65.962 229.335,62.266C225.849,58.828 221.719,54.368 219.18,51.655C217.447,49.804 215.254,47.067 214.1,45.991C213.611,45.534 212.891,44.988 212.257,45.199C211.446,45.468 209.575,46.905 209.239,47.605C208.942,48.221 209.787,48.883 210.237,49.398C212.346,51.809 220.878,60.217 221.892,62.07C222.817,63.762 217.998,61.466 216.319,60.518C214.392,59.429 212.202,57.169 210.329,55.538C208.539,53.98 206.156,51.435 205.078,50.731C204.702,50.485 204.308,51.366 203.862,51.313C202.706,51.175 199.953,50.159 198.143,49.905C196.448,49.667 194.428,49.569 193.007,49.787C191.796,49.972 189.84,50.816 189.619,51.21C189.397,51.603 191.014,51.792 191.68,52.147C192.963,52.829 195.673,53.912 197.318,55.302C199.026,56.746 200.122,59.24 201.931,60.81C204.01,62.615 207.048,64.743 209.795,66.131C212.51,67.502 216.15,67.985 218.413,69.133C220.285,70.083 221.858,71.563 223.37,73.02C227.885,77.37 239.274,88.401 245.504,95.236C250.939,101.199 256.555,108.557 260.752,114.032C264.243,118.585 268.305,124.763 270.69,128.085C272.113,130.067 274.266,132.687 275.06,133.959C275.377,134.468 275.013,136.129 275.451,135.717Z" style="fill:rgb(101,101,101);"/>
        </g>
        <g transform="matrix(4.16547,0,0,19.4681,5418.11,1437.59)">
            <path d="M313.353,0.458C313.518,7.605 314.385,28.879 314.802,43.093C315.224,57.504 315.741,73.439 315.888,86.925C316.023,99.284 316.033,115.893 315.682,124.005C315.513,127.917 314.782,133.054 313.784,135.599C313.114,137.306 310.464,137.611 309.691,139.274C308.884,141.013 309.615,144.289 308.939,146.032C308.342,147.572 307.056,148.883 305.637,149.729C301.074,152.45 288.619,158.623 281.56,162.356C275.453,165.586 266.292,169.759 263.284,172.128C262.119,173.046 262.836,175.778 263.512,176.57C264.187,177.362 266.15,177.356 267.339,176.881C271.864,175.073 284.072,169.245 290.664,165.72C296.264,162.726 303.578,157.543 306.889,155.735C307.985,155.138 309.814,153.858 310.534,154.878C311.385,156.081 310.922,162.73 311.992,162.956C313.063,163.183 316.036,158.865 316.957,156.237C318.206,152.672 318.964,146.502 319.486,141.568C320.058,136.157 320.159,129.706 320.389,123.77C320.71,115.54 321.411,102.722 321.407,92.191C321.401,76.128 320.721,42.692 320.352,27.394C320.135,18.392 319.424,4.93 319.191,0.406C319.186,0.311 319.049,0.253 318.955,0.249C318.058,0.217 314.746,0.176 313.813,0.211C313.639,0.217 313.349,0.284 313.353,0.458Z" style="fill:rgb(101,101,101);"/>
        </g>
        <g transform="matrix(0.414321,-0.168243,0.0496994,0.122392,2785.79,2963.07)">
            <path d="M9583.73,365.049C9583.73,286.046 9564.78,221.907 9541.44,221.907L939.447,221.907C916.109,221.907 897.162,286.046 897.162,365.049L897.162,590.237C897.162,669.239 916.109,733.379 939.447,733.379L9541.44,733.379C9564.78,733.379 9583.73,669.239 9583.73,590.237L9583.73,365.049Z" style="fill:rgb(101,101,101);"/>
        </g>
    </g>
</svg>
