<?xml version="1.0" standalone="no"?>
<!DOCTYPE svg PUBLIC "-//W3C//DTD SVG 1.1//EN" "http://www.w3.org/Graphics/SVG/1.1/DTD/svg11.dtd">
<svg width="100%" height="100%" viewBox="0 0 5111 2946" version="1.1" xmlns="http://www.w3.org/2000/svg" xmlns:xlink="http://www.w3.org/1999/xlink" xml:space="preserve" style="fill-rule:evenodd;clip-rule:evenodd;stroke-linecap:round;stroke-linejoin:round;stroke-miterlimit:1.41421;">
    <g transform="matrix(1,0,0,1,-3601.34,-852.62)">
        <g transform="matrix(1,0,0,1,3632.52,778.841)">
            <path d="M494.215,1336.98C549.757,1267.96 628.061,1162.38 704.655,1083.79C798.711,987.278 932.075,856.497 1058.55,757.917C1196.97,650.033 1376.86,515.786 1535.15,436.483C1683.47,362.175 1864.78,317.801 2008.28,282.102C2135.23,250.52 2269,231.651 2396.17,222.289C2520.87,213.108 2647.32,209.505 2771.28,225.93C2907.69,244.005 3073.32,275.129 3214.63,330.737C3358.94,387.526 3505.02,474.455 3637.13,566.661C3769.25,658.866 3914.25,798.598 4007.33,883.97C4073.9,945.031 4136.65,1010.45 4195.6,1078.89C4263.81,1158.09 4342.8,1266.63 4416.58,1359.12C4489.95,1451.1 4571.44,1554.76 4638.25,1633.84C4695.97,1702.15 4768.97,1782.94 4817.4,1833.55C4852.52,1870.25 4908.74,1919.43 4928.84,1937.51C4931.36,1939.78 4936.84,1940.23 4937.99,1942.01C4939.13,1943.79 4937.3,1946.68 4935.7,1948.19C4929.95,1953.62 4914.38,1965.99 4903.48,1974.59C4872.35,1999.15 4798.44,2058.45 4748.88,2095.59C4702.1,2130.65 4646.7,2168.3 4606.12,2197.44C4572.43,2221.63 4540.02,2247.66 4505.37,2270.44C4454.27,2304.05 4351.79,2367.93 4299.5,2399.07C4264.39,2419.98 4228.51,2439.7 4191.63,2457.3C4132.32,2485.62 4000.55,2544.22 3943.61,2568.94C3912.87,2582.29 3881.21,2593.42 3849.99,2605.62C3801.22,2624.68 3713.01,2661.01 3650.97,2683.32C3593.85,2703.86 3524.97,2724.31 3477.73,2739.47C3441.04,2751.26 3404.82,2764.68 3367.51,2774.34C3315.47,2787.8 3233.28,2807 3165.52,2820.28C3096.82,2833.73 3025.8,2846.55 2955.29,2855.08C2878.1,2864.42 2772.83,2872.52 2702.4,2876.3C2645.91,2879.34 2589.24,2879.26 2532.69,2877.79C2466.03,2876.06 2373.35,2871.97 2302.46,2865.91C2237.16,2860.33 2167.51,2850.89 2107.37,2841.45C2051.77,2832.72 1996.45,2821.96 1941.61,2809.28C1880.56,2795.18 1805.41,2775.64 1741.11,2756.8C1678.76,2738.53 1616.92,2718.39 1555.84,2696.25C1492.03,2673.12 1415.03,2642.99 1358.23,2618.04C1309.38,2596.59 1262.27,2571.32 1215.01,2546.56C1161.69,2518.62 1091.95,2481.38 1038.31,2450.4C989.053,2421.95 940.352,2392.43 893.155,2360.68C838.391,2323.84 768.901,2275.75 709.723,2229.35C627.82,2165.14 479.718,2036.69 401.734,1975.38C350.289,1934.93 290.424,1893.74 241.822,1861.49C199.076,1833.13 132.05,1795.74 110.117,1781.87C109.104,1781.23 109.628,1779.32 110.227,1778.28C111.046,1776.86 113.474,1775.04 115.031,1773.36C125.031,1762.56 151.76,1733.37 170.227,1713.47C193.807,1688.06 227.734,1651.74 256.516,1620.89C290.045,1584.96 335.388,1540.91 371.403,1497.89C411.02,1450.57 451.911,1389.54 494.215,1336.98Z" style="fill:none;stroke-width:162.5px;stroke:black;"/>
        </g>
        <g transform="matrix(1,0,0,1,3666.8,831.641)">
            <path d="M1379.8,562.35C1357.9,592.44 1315.99,649.4 1289.21,696.121C1259.85,747.324 1227.31,809.598 1203.66,869.571C1175.88,940.052 1140.99,1044.46 1122.49,1119.01C1106.41,1183.75 1097.64,1259.97 1092.61,1316.89C1088.39,1364.58 1090.65,1412.66 1092.26,1460.51C1093.91,1509.34 1094.63,1560.59 1102.48,1609.88C1112.38,1672.02 1128.66,1760.63 1151.62,1833.37C1175.28,1908.29 1215.77,1998.83 1244.43,2059.41C1267.04,2107.2 1294.03,2153.01 1323.59,2196.84C1356.19,2245.2 1401.22,2304.52 1440.05,2349.56C1476.08,2391.35 1514.91,2430.95 1556.6,2467.09C1604.34,2508.48 1672.99,2561.28 1726.5,2597.88C1774.75,2630.88 1824.97,2661.47 1877.69,2686.72C1935.49,2714.4 2006.39,2743.05 2073.3,2763.96C2140.38,2784.93 2223.45,2802.06 2280.19,2812.52C2324.22,2820.64 2369.05,2824.15 2413.74,2826.72C2458.53,2829.29 2503.9,2829.88 2548.91,2827.95C2601.45,2825.69 2669.59,2823.27 2728.95,2813.16C2789.91,2802.78 2854.13,2786.07 2914.68,2765.64C2985.28,2741.83 3084.39,2703.9 3152.57,2670.28C3212.82,2640.57 3270.32,2604.62 3323.76,2563.91C3385.12,2517.16 3461.16,2454.02 3520.79,2389.78C3581.45,2324.42 3644.79,2235.04 3687.73,2171.78C3722.41,2120.68 3753.51,2066.74 3778.4,2010.22C3807.68,1943.7 3843.53,1842.38 3863.45,1772.65C3880.3,1713.67 3890.52,1651.57 3897.92,1591.89C3905.22,1533.13 3908.38,1473.76 3907.88,1414.55C3907.37,1353.84 3903.86,1289.44 3894.86,1227.63C3885.25,1161.69 3868.08,1081.68 3850.24,1018.88C3833.91,961.38 3810.83,904.162 3787.8,850.785C3765.35,798.761 3740.91,746.748 3712.05,698.616C3683.3,650.651 3633.53,587.258 3614.69,561.993C3610.37,556.2 3604.9,551.208 3599.01,547.024C3585.8,537.644 3557.1,518.716 3535.43,505.715C3499.96,484.44 3433.36,444.18 3386.21,419.375C3342.69,396.476 3292.86,374.484 3252.56,356.886C3216.99,341.356 3181.19,326.142 3144.4,313.788C3096.9,297.839 3012.14,273.15 2967.56,261.191C2937.73,253.189 2907.46,246.566 2876.91,242.033C2840.08,236.568 2790.2,231.02 2746.61,228.403C2694.12,225.253 2620.8,223.225 2562.01,223.13C2505.94,223.039 2449.82,224.257 2393.86,227.83C2336.51,231.491 2270.43,238.347 2217.92,245.097C2171.27,251.092 2124.74,258.469 2078.75,268.329C2018.5,281.249 1919.54,304.831 1856.42,322.614C1803.52,337.521 1745.27,357.377 1700.09,375.026C1660.8,390.379 1619.59,411.799 1585.38,428.508C1554.85,443.42 1522.26,460.772 1494.81,475.284C1469.93,488.432 1439.8,501.07 1420.64,515.581C1404.14,528.073 1391.98,545.618 1379.8,562.35Z" style="fill:white;stroke-width:95.83px;stroke:black;"/>
        </g>
        <g transform="matrix(0.96109,0,0,0.96109,3692.54,832.339)">
            <circle cx="2647.9" cy="1455.91" r="588.658" style="fill:black;stroke-width:36.85px;stroke:black;"/>
        </g>
    </g>
</svg>
